<?xml version="1.0" encoding="UTF-8"?> <svg xmlns="http://www.w3.org/2000/svg" width="126" height="100%" viewBox="0 0 108 14" fill="none"><path d="M2.31315 13.4066L2.32431 13.3993L2.33265 13.3888C2.37241 13.3392 2.40176 13.282 2.41893 13.2207C2.43559 13.1612 2.44045 13.0991 2.43326 13.0378V8.34423L4.8796 8.34329C4.87961 8.34329 4.87962 8.34329 4.87963 8.34329C6.28321 8.34329 7.35164 8.0311 8.06958 7.39193C8.78939 6.7511 9.14246 5.79463 9.14246 4.5389V4.17226C9.14246 4.17224 9.14246 4.17223 9.14246 4.17222C9.14311 2.82783 8.80723 1.83165 8.11619 1.20473C7.42716 0.579646 6.34193 0.27604 4.8796 0.27604H1.30857C1.18456 0.264323 1.0602 0.295279 0.956102 0.363863L0.945088 0.371119L0.936816 0.381394C0.896895 0.430985 0.867447 0.488153 0.850251 0.549452C0.833575 0.608897 0.828767 0.671015 0.83606 0.732272V13.0378C0.828876 13.0991 0.833734 13.1612 0.850389 13.2207C0.867554 13.2819 0.896891 13.3391 0.93666 13.3888L0.944995 13.3993L0.956139 13.4066C1.06027 13.4751 1.18469 13.5059 1.30867 13.4939H1.96013C2.08427 13.506 2.20887 13.4752 2.31315 13.4066ZM4.93322 6.92967H2.43326L2.43278 1.69158H4.93265C5.87785 1.69254 6.52143 1.89026 6.88886 2.26222C7.25649 2.6344 7.45153 3.28742 7.45153 4.24661V4.53939C7.45153 5.43456 7.25425 6.04386 6.88242 6.39307C6.50894 6.74383 5.86696 6.92967 4.93322 6.92967Z" fill="black" stroke="black" stroke-width="0.168593"></path><path d="M23.5402 4.76908H23.6245V4.76375C23.9175 4.75235 24.2095 4.80769 24.4785 4.92602C24.7695 5.05407 25.0245 5.25191 25.2208 5.50198C25.624 6.18812 25.815 6.97772 25.7707 7.77126H21.2064C21.2228 6.76572 21.4255 6.02239 21.8022 5.52861C22.1861 5.0254 22.7603 4.76908 23.5402 4.76908ZM26.4325 4.54084C25.7828 3.81865 24.8135 3.4642 23.541 3.46369C22.9912 3.42836 22.4404 3.51883 21.9307 3.72824C21.4202 3.93799 20.9643 4.26154 20.5978 4.67423L20.5977 4.6742L20.5961 4.67612C19.9193 5.48518 19.587 6.64063 19.587 8.12997V9.50172C19.513 10.6388 19.8775 11.7611 20.6056 12.6378L20.6054 12.638L20.6106 12.6433C20.9896 13.025 21.4458 13.3212 21.9487 13.5119C22.4506 13.7023 22.9874 13.7833 23.5231 13.7495C24.1163 13.7559 24.7057 13.6549 25.2629 13.4513C25.7475 13.2826 26.1836 12.9983 26.5335 12.6231L26.5336 12.6231L26.5359 12.6204C26.7216 12.4038 26.8792 12.1645 27.0049 11.9083C27.1256 11.6958 27.1977 11.459 27.2159 11.2152L27.2161 11.2152L27.2161 11.2092C27.2163 11.1379 27.21 11.0747 27.1947 11.0225C27.1795 10.971 27.1523 10.9206 27.1035 10.8901L27.0968 10.8859L27.0894 10.883C26.9736 10.8381 26.8494 10.8196 26.7256 10.829H26.0724C25.9675 10.8206 25.8623 10.8401 25.7673 10.8856L25.7532 10.8923L25.7425 10.9037C25.6633 10.9873 25.6039 11.0876 25.5686 11.1972C25.4041 11.5773 25.1582 11.8592 24.8313 12.0473C24.5022 12.2366 24.0854 12.3339 23.5765 12.3339H23.5765C22.7762 12.3341 22.1896 12.0887 21.8005 11.6095C21.4086 11.1269 21.2055 10.3935 21.2055 9.39481V9.13076H26.9247C27.0488 9.14271 27.1733 9.11196 27.2776 9.04351L27.2888 9.03614L27.2972 9.02564C27.3369 8.97595 27.3662 8.91882 27.3835 8.85762C27.4002 8.79818 27.4052 8.73608 27.3982 8.67476V7.74492V7.74491C27.3981 6.33501 27.0811 5.26185 26.4325 4.54084Z" fill="black" stroke="black" stroke-width="0.168593"></path><path d="M31.3235 3.83472L31.3183 3.82848L31.3121 3.82333C31.2219 3.74875 31.1061 3.71238 30.9896 3.72187H30.2052C30.0984 3.72187 30.0036 3.74193 29.9339 3.7948C29.8599 3.85094 29.8276 3.93351 29.8276 4.02647H29.8266L29.8286 4.03953C29.8411 4.11917 29.8606 4.19757 29.8867 4.27383C29.8867 4.27393 29.8868 4.27403 29.8868 4.27413L32.8184 13.0328C32.8594 13.1631 32.928 13.283 33.0197 13.3843L33.0254 13.3905L33.0323 13.3956C33.1322 13.4691 33.2554 13.5041 33.379 13.4941H34.4349C34.5584 13.5037 34.6813 13.4688 34.7813 13.3957L34.7884 13.3905L34.7943 13.384C34.8854 13.2827 34.9537 13.1629 34.9944 13.0329L37.9454 4.27422C37.9454 4.27413 37.9454 4.27405 37.9455 4.27397C37.9717 4.19766 37.9911 4.11917 38.0035 4.03943L38.0046 4.03959V4.02647C38.0046 3.93258 37.9721 3.84983 37.8977 3.79389C37.8279 3.74134 37.7332 3.72187 37.6275 3.72187H36.8608C36.7476 3.71301 36.6348 3.74468 36.5427 3.8113L36.5347 3.81711L36.5282 3.82462C36.4432 3.92344 36.3838 4.0416 36.3551 4.16873L33.9608 11.6877L31.4952 4.16654C31.4621 4.04505 31.4035 3.93195 31.3235 3.83472Z" fill="black" stroke="black" stroke-width="0.168593"></path><mask id="path-4-outside-1_1101:2070" maskUnits="userSpaceOnUse" x="39.4622" y="2.54395" width="9" height="12" fill="black"><rect fill="white" x="39.4622" y="2.54395" width="9" height="12"></rect><path d="M44.4384 8.75322C43.4975 8.75322 42.8469 8.89977 42.4865 9.19287C42.2912 9.38034 42.141 9.60973 42.0472 9.86374C41.9535 10.1177 41.9187 10.3897 41.9454 10.6592C41.9233 10.9003 41.9573 11.1432 42.0448 11.3689C42.1323 11.5947 42.271 11.7971 42.4498 11.9602C42.9812 12.2802 43.601 12.4215 44.2186 12.3636H44.3838C44.6641 12.391 44.9471 12.3586 45.214 12.2686C45.4809 12.1786 45.7257 12.033 45.9322 11.8414C46.2857 11.3572 46.4519 10.7612 46.3999 10.164V8.91749C46.033 8.86885 45.6694 8.82923 45.309 8.79863C44.9485 8.76804 44.6587 8.75194 44.4393 8.75033L44.4384 8.75322ZM44.3292 7.54251C44.5737 7.54251 44.8854 7.55458 45.2645 7.57874C45.6436 7.6029 46.0224 7.63961 46.4008 7.68889V6.60717C46.425 6.34539 46.3961 6.08142 46.3157 5.83111C46.2353 5.5808 46.1052 5.34931 45.9332 5.15054C45.4989 4.81111 44.9514 4.65038 44.4026 4.70122C43.9525 4.67584 43.5029 4.76058 43.0929 4.9481C42.7674 5.14348 42.5183 5.44415 42.387 5.80034C42.3516 5.89251 42.3027 5.97895 42.2421 6.05688C42.1591 6.10526 42.0624 6.12479 41.9672 6.11244H41.3072C41.1952 6.1249 41.0823 6.09902 40.9869 6.03901C40.9548 6.00139 40.9309 5.95755 40.9166 5.91024C40.9023 5.86294 40.898 5.81319 40.9038 5.76411C40.9091 5.56905 40.9586 5.37774 41.0487 5.20465C41.1462 5.00344 41.2693 4.81571 41.4149 4.64615C41.7374 4.27648 42.1469 3.9929 42.6063 3.82097C43.1836 3.62151 43.7922 3.52837 44.4026 3.54607C45.6243 3.54607 46.5041 3.78135 47.042 4.25192C47.5798 4.72248 47.8486 5.49549 47.8483 6.57093V10.3282C47.8483 11.4397 47.5736 12.2611 47.0241 12.7922C46.4746 13.3233 45.5948 13.5889 44.3847 13.5889H44.1098C42.8634 13.5889 41.9438 13.3598 41.3512 12.9018C40.7586 12.4438 40.4622 11.7014 40.4622 10.6746C40.4622 9.58758 40.7738 8.79332 41.3971 8.29184C42.0203 7.79035 42.9977 7.54009 44.3292 7.54105"></path></mask><path d="M44.4384 8.75322C43.4975 8.75322 42.8469 8.89977 42.4865 9.19287C42.2912 9.38034 42.141 9.60973 42.0472 9.86374C41.9535 10.1177 41.9187 10.3897 41.9454 10.6592C41.9233 10.9003 41.9573 11.1432 42.0448 11.3689C42.1323 11.5947 42.271 11.7971 42.4498 11.9602C42.9812 12.2802 43.601 12.4215 44.2186 12.3636H44.3838C44.6641 12.391 44.9471 12.3586 45.214 12.2686C45.4809 12.1786 45.7257 12.033 45.9322 11.8414C46.2857 11.3572 46.4519 10.7612 46.3999 10.164V8.91749C46.033 8.86885 45.6694 8.82923 45.309 8.79863C44.9485 8.76804 44.6587 8.75194 44.4393 8.75033L44.4384 8.75322ZM44.3292 7.54251C44.5737 7.54251 44.8854 7.55458 45.2645 7.57874C45.6436 7.6029 46.0224 7.63961 46.4008 7.68889V6.60717C46.425 6.34539 46.3961 6.08142 46.3157 5.83111C46.2353 5.5808 46.1052 5.34931 45.9332 5.15054C45.4989 4.81111 44.9514 4.65038 44.4026 4.70122C43.9525 4.67584 43.5029 4.76058 43.0929 4.9481C42.7674 5.14348 42.5183 5.44415 42.387 5.80034C42.3516 5.89251 42.3027 5.97895 42.2421 6.05688C42.1591 6.10526 42.0624 6.12479 41.9672 6.11244H41.3072C41.1952 6.1249 41.0823 6.09902 40.9869 6.03901C40.9548 6.00139 40.9309 5.95755 40.9166 5.91024C40.9023 5.86294 40.898 5.81319 40.9038 5.76411C40.9091 5.56905 40.9586 5.37774 41.0487 5.20465C41.1462 5.00344 41.2693 4.81571 41.4149 4.64615C41.7374 4.27648 42.1469 3.9929 42.6063 3.82097C43.1836 3.62151 43.7922 3.52837 44.4026 3.54607C45.6243 3.54607 46.5041 3.78135 47.042 4.25192C47.5798 4.72248 47.8486 5.49549 47.8483 6.57093V10.3282C47.8483 11.4397 47.5736 12.2611 47.0241 12.7922C46.4746 13.3233 45.5948 13.5889 44.3847 13.5889H44.1098C42.8634 13.5889 41.9438 13.3598 41.3512 12.9018C40.7586 12.4438 40.4622 11.7014 40.4622 10.6746C40.4622 9.58758 40.7738 8.79332 41.3971 8.29184C42.0203 7.79035 42.9977 7.54009 44.3292 7.54105" fill="black"></path><path d="M44.4384 8.75322V8.92182H44.5596L44.5982 8.8069L44.4384 8.75322ZM42.4865 9.19287L42.3798 9.06163L42.3698 9.07123L42.4865 9.19287ZM41.9454 10.6592L42.1133 10.6746L42.1148 10.6585L42.1132 10.6425L41.9454 10.6592ZM42.4498 11.9602L42.3362 12.0848L42.3485 12.096L42.3629 12.1047L42.4498 11.9602ZM44.2186 12.3636V12.195H44.2107L44.2028 12.1958L44.2186 12.3636ZM44.3838 12.3636L44.4002 12.1958L44.392 12.195H44.3838V12.3636ZM45.9322 11.8414L46.0469 11.965L46.0588 11.9539L46.0684 11.9408L45.9322 11.8414ZM46.3999 10.164H46.2313V10.1713L46.2319 10.1786L46.3999 10.164ZM46.3999 8.91749H46.5684V8.76977L46.422 8.75035L46.3999 8.91749ZM44.4393 8.75033L44.4406 8.58174L44.3184 8.58084L44.2795 8.69665L44.4393 8.75033ZM46.4008 7.68889L46.3791 7.85607L46.5694 7.88086V7.68889H46.4008ZM46.4008 6.60717L46.2329 6.59165L46.2322 6.59939V6.60717H46.4008ZM45.9332 5.15054L46.0606 5.0402L46.0499 5.0278L46.037 5.01771L45.9332 5.15054ZM44.4026 4.70122L44.3931 4.86955L44.4057 4.87026L44.4182 4.8691L44.4026 4.70122ZM43.0929 4.9481L43.0227 4.79478L43.0142 4.7987L43.0061 4.80355L43.0929 4.9481ZM42.387 5.80034L42.5444 5.86086L42.5452 5.85867L42.387 5.80034ZM42.2421 6.05688L42.327 6.20253L42.3551 6.18613L42.3751 6.16043L42.2421 6.05688ZM41.9672 6.11244L41.9888 5.94525L41.978 5.94385H41.9672V6.11244ZM41.3072 6.11244V5.94385H41.2979L41.2886 5.94488L41.3072 6.11244ZM40.9869 6.03901L40.8586 6.14835L40.8753 6.16798L40.8971 6.18171L40.9869 6.03901ZM40.9038 5.76411L41.0712 5.78405L41.0721 5.7764L41.0723 5.76868L40.9038 5.76411ZM41.0487 5.20465L41.1983 5.28251L41.2005 5.27813L41.0487 5.20465ZM41.4149 4.64615L41.2879 4.53531L41.2871 4.53628L41.4149 4.64615ZM42.6063 3.82097L42.5513 3.66157L42.5472 3.66307L42.6063 3.82097ZM44.4026 3.54607L44.3977 3.71466H44.4026V3.54607ZM47.8483 6.57093L47.6797 6.57088V6.57093H47.8483ZM44.4384 8.58463C43.4921 8.58463 42.789 8.72957 42.3802 9.06207L42.5929 9.32367C42.9049 9.06998 43.503 8.92182 44.4384 8.92182V8.58463ZM42.3698 9.07123C42.156 9.27638 41.9916 9.5274 41.8891 9.80537L42.2054 9.92211C42.2903 9.69206 42.4263 9.48431 42.6033 9.31451L42.3698 9.07123ZM41.8891 9.80537C41.7865 10.0833 41.7484 10.381 41.7777 10.6758L42.1132 10.6425C42.089 10.3985 42.1205 10.1522 42.2054 9.92211L41.8891 9.80537ZM41.7775 10.6437C41.753 10.9108 41.7907 11.1798 41.8876 11.4299L42.202 11.308C42.1239 11.1065 42.0936 10.8897 42.1133 10.6746L41.7775 10.6437ZM41.8876 11.4299C41.9846 11.6799 42.1381 11.904 42.3362 12.0848L42.5634 11.8357C42.4038 11.6901 42.2801 11.5094 42.202 11.308L41.8876 11.4299ZM42.3629 12.1047C42.9251 12.4432 43.5809 12.5927 44.2343 12.5315L44.2028 12.1958C43.6211 12.2503 43.0373 12.1171 42.5368 11.8158L42.3629 12.1047ZM44.2186 12.5322H44.3838V12.195H44.2186V12.5322ZM44.3674 12.5314C44.6715 12.5611 44.9784 12.526 45.2679 12.4284L45.1601 12.1089C44.9158 12.1913 44.6568 12.2209 44.4002 12.1958L44.3674 12.5314ZM45.2679 12.4284C45.5574 12.3307 45.8229 12.1728 46.0469 11.965L45.8175 11.7178C45.6285 11.8932 45.4044 12.0264 45.1601 12.1089L45.2679 12.4284ZM46.0684 11.9408C46.4459 11.4236 46.6234 10.7872 46.5678 10.1493L46.2319 10.1786C46.2804 10.7353 46.1255 11.2907 45.796 11.742L46.0684 11.9408ZM46.5684 10.164V8.91749H46.2313V10.164H46.5684ZM46.422 8.75035C46.0526 8.70138 45.6863 8.66147 45.3232 8.63065L45.2947 8.96662C45.6524 8.99699 46.0134 9.03632 46.3777 9.08462L46.422 8.75035ZM45.3232 8.63065C44.9609 8.59988 44.6661 8.58339 44.4406 8.58174L44.4381 8.91891C44.6512 8.92048 44.9362 8.93619 45.2947 8.96662L45.3232 8.63065ZM44.2795 8.69665L44.2785 8.69954L44.5982 8.8069L44.5991 8.80401L44.2795 8.69665ZM44.3292 7.7111C44.5687 7.7111 44.8766 7.72295 45.2538 7.74699L45.2752 7.41049C44.8943 7.38621 44.5786 7.37391 44.3292 7.37391V7.7111ZM45.2538 7.74699C45.6292 7.77091 46.0043 7.80727 46.3791 7.85607L46.4226 7.52171C46.0405 7.47195 45.658 7.43488 45.2752 7.41049L45.2538 7.74699ZM46.5694 7.68889V6.60717H46.2322V7.68889H46.5694ZM46.5687 6.62268C46.595 6.33828 46.5635 6.05151 46.4762 5.77957L46.1552 5.88264C46.2286 6.11133 46.255 6.35249 46.2329 6.59165L46.5687 6.62268ZM46.4762 5.77957C46.3889 5.50763 46.2475 5.25614 46.0606 5.0402L45.8057 5.26087C45.9629 5.44248 46.0818 5.65396 46.1552 5.88264L46.4762 5.77957ZM46.037 5.01771C45.5689 4.65181 44.9787 4.47854 44.3871 4.53335L44.4182 4.8691C44.9242 4.82222 45.429 4.97041 45.8293 5.28336L46.037 5.01771ZM44.4121 4.5329C43.9346 4.50597 43.4577 4.59586 43.0227 4.79478L43.163 5.10142C43.5481 4.92529 43.9703 4.8457 44.3931 4.86955L44.4121 4.5329ZM43.0061 4.80355C42.6477 5.0187 42.3734 5.34979 42.2288 5.74202L42.5452 5.85867C42.6632 5.53851 42.8871 5.26826 43.1796 5.09265L43.0061 4.80355ZM42.2296 5.73983C42.2001 5.81654 42.1595 5.88848 42.109 5.95333L42.3751 6.16043C42.4459 6.06943 42.503 5.96849 42.5444 5.86086L42.2296 5.73983ZM42.1572 5.91123C42.1064 5.94085 42.0472 5.95281 41.9888 5.94525L41.9455 6.27964C42.0777 6.29678 42.2118 6.26966 42.327 6.20253L42.1572 5.91123ZM41.9672 5.94385H41.3072V6.28104H41.9672V5.94385ZM41.2886 5.94488C41.2145 5.95313 41.1398 5.936 41.0767 5.89631L40.8971 6.18171C41.0248 6.26204 41.176 6.29668 41.3259 6.28L41.2886 5.94488ZM41.1152 5.92967C41.0983 5.90976 41.0856 5.88654 41.078 5.86146L40.7552 5.95903C40.7763 6.02856 40.8114 6.09302 40.8586 6.14835L41.1152 5.92967ZM41.078 5.86146C41.0704 5.83638 41.0681 5.81003 41.0712 5.78405L40.7364 5.74417C40.7278 5.81634 40.7342 5.88949 40.7552 5.95903L41.078 5.86146ZM41.0723 5.76868C41.0769 5.59916 41.12 5.4329 41.1983 5.28248L40.8992 5.12681C40.7973 5.32258 40.7413 5.53894 40.7353 5.75954L41.0723 5.76868ZM41.2005 5.27813C41.2916 5.09003 41.4066 4.91453 41.5428 4.75601L41.2871 4.53628C41.1319 4.71689 41.0008 4.91686 40.897 5.13117L41.2005 5.27813ZM41.542 4.75698C41.8461 4.4084 42.2322 4.14099 42.6654 3.97887L42.5472 3.66307C42.0616 3.84481 41.6288 4.14456 41.2879 4.53531L41.542 4.75698ZM42.6614 3.98031C43.2194 3.78751 43.8077 3.69748 44.3977 3.71459L44.4075 3.37755C43.7767 3.35926 43.1478 3.4555 42.5513 3.66162L42.6614 3.98031ZM44.4026 3.71466C45.61 3.71466 46.4392 3.94858 46.9309 4.37881L47.153 4.12503C46.569 3.61412 45.6385 3.37747 44.4026 3.37747V3.71466ZM46.9309 4.37881C47.417 4.80402 47.68 5.51932 47.6797 6.57088L48.0169 6.57098C48.0172 5.47166 47.7427 4.64094 47.153 4.12503L46.9309 4.37881ZM47.6797 6.57093V10.3282H48.0169V6.57093H47.6797ZM47.6797 10.3282C47.6797 11.4149 47.411 12.1837 46.9069 12.671L47.1413 12.9134C47.7361 12.3385 48.0169 11.4646 48.0169 10.3282H47.6797ZM46.9069 12.671C46.4029 13.1581 45.5756 13.4203 44.3847 13.4203V13.7574C45.614 13.7574 46.5463 13.4885 47.1413 12.9134L46.9069 12.671ZM44.3847 13.4203H44.1098V13.7574H44.3847V13.4203ZM44.1098 13.4203C42.878 13.4203 42.0034 13.1928 41.4543 12.7684L41.2481 13.0352C41.8842 13.5268 42.8487 13.7574 44.1098 13.7574V13.4203ZM41.4543 12.7684C40.9169 12.3532 40.6308 11.6699 40.6308 10.6746H40.2936C40.2936 11.733 40.6002 12.5345 41.2481 13.0352L41.4543 12.7684ZM40.6308 10.6746C40.6308 9.61914 40.9323 8.88218 41.5028 8.42319L41.2914 8.16048C40.6153 8.70447 40.2936 9.55602 40.2936 10.6746H40.6308ZM41.5028 8.42319C42.0818 7.95729 43.0126 7.70869 44.3291 7.70965L44.3293 7.37246C42.9828 7.37148 41.9589 7.6234 41.2914 8.16048L41.5028 8.42319Z" fill="black" mask="url(#path-4-outside-1_1101:2070)"></path><path d="M60.7362 4.7691H60.8205V4.76378C61.1134 4.75241 61.4055 4.80777 61.6744 4.9261C61.9655 5.05414 62.2204 5.25196 62.4168 5.50199C62.82 6.18814 63.011 6.97774 62.9666 7.77128H58.4024C58.4187 6.76573 58.6214 6.0224 58.9981 5.52862C59.382 5.02541 59.9563 4.7691 60.7362 4.7691ZM58.4015 9.13078H64.1211C64.2452 9.14272 64.3697 9.11197 64.4741 9.04353L64.4853 9.03616L64.4937 9.02566C64.5334 8.97597 64.5627 8.91883 64.5799 8.85763C64.5967 8.79818 64.6017 8.73608 64.5947 8.67478V7.74493V7.74493C64.5945 6.33503 64.2776 5.26187 63.6289 4.54086C62.9792 3.81867 62.01 3.46421 60.7375 3.46371C60.1876 3.42834 59.6369 3.51879 59.1272 3.7282C58.6166 3.93796 58.1607 4.26153 57.7942 4.67425L57.7942 4.67422L57.7926 4.67613C57.1157 5.4852 56.7835 6.64064 56.7835 8.12999V9.50173C56.7095 10.6388 57.074 11.7611 57.8021 12.6378L57.8018 12.638L57.8071 12.6433C58.1861 13.025 58.6423 13.3212 59.1452 13.512C59.6471 13.7023 60.1839 13.7833 60.7196 13.7495C61.3127 13.7559 61.9021 13.6549 62.4593 13.4513C62.944 13.2828 63.3801 12.9984 63.73 12.6231L63.73 12.6231L63.7323 12.6205C63.9182 12.4039 64.0758 12.1646 64.2014 11.9083C64.3221 11.6958 64.3941 11.459 64.4123 11.2152L64.4125 11.2152L64.4126 11.2092C64.4127 11.1379 64.4065 11.0747 64.3911 11.0225C64.3759 10.971 64.3488 10.9206 64.3 10.8901L64.2932 10.8859L64.2858 10.883C64.1701 10.8381 64.0458 10.8197 63.9221 10.829H63.2689C63.164 10.8206 63.0587 10.8401 62.9638 10.8856L62.9497 10.8923L62.9389 10.9037C62.8598 10.9873 62.8004 11.0877 62.7651 11.1973C62.6006 11.5773 62.3547 11.8592 62.0277 12.0473C61.6987 12.2366 61.2819 12.3339 60.7729 12.3339H60.7729C59.9725 12.3341 59.3858 12.0887 58.9966 11.6095C58.6046 11.1269 58.4015 10.3936 58.4015 9.39482V9.13078Z" fill="black" stroke="black" stroke-width="0.168593"></path><path d="M80.6531 12.8765L80.6577 12.8822L80.6632 12.887C80.9192 13.1092 81.2174 13.2774 81.5399 13.3816C81.8612 13.4854 82.2001 13.5235 82.5363 13.4937L83.5229 13.4951H83.5231C83.5947 13.4951 83.6583 13.4885 83.7114 13.4732C83.7639 13.4581 83.8138 13.4323 83.847 13.388L83.8515 13.382L83.8549 13.3753C83.9071 13.2717 83.9291 13.1556 83.9185 13.0401V12.496C83.9292 12.3806 83.9071 12.2645 83.8548 12.1611L83.8515 12.1545L83.847 12.1486C83.8138 12.1043 83.7639 12.0784 83.7114 12.0633C83.6583 12.048 83.5947 12.0414 83.5231 12.0414H82.6612V12.041L82.6531 12.0418C82.5148 12.055 82.3754 12.0354 82.2461 11.9845C82.1192 11.9346 82.0056 11.8559 81.9143 11.7547C81.7328 11.4494 81.6516 11.0947 81.6822 10.7406L81.6826 10.7406V10.7333V5.09932H83.4863C83.5574 5.09932 83.6207 5.09285 83.6738 5.07774C83.7263 5.06277 83.776 5.03719 83.8097 4.9935L83.8146 4.98717L83.8182 4.98002C83.8704 4.87642 83.8924 4.76026 83.8818 4.6448V4.17602C83.8925 4.06066 83.8704 3.94458 83.8181 3.84114L83.8146 3.83424L83.8099 3.82809C83.7764 3.78409 83.7268 3.75826 83.6741 3.74315C83.621 3.72794 83.5576 3.72147 83.4863 3.72147H81.6801V1.48317C81.6873 1.42183 81.6824 1.35966 81.6658 1.30015C81.6486 1.23882 81.6193 1.18156 81.5796 1.13176L81.5711 1.12107L81.5596 1.11362C81.4552 1.04579 81.331 1.01531 81.2071 1.02706H80.5391C80.4151 1.01531 80.2907 1.04577 80.1861 1.11357L80.1745 1.1211L80.1659 1.13193C80.1264 1.18177 80.0973 1.23898 80.0801 1.30021C80.0635 1.35966 80.0586 1.42176 80.0656 1.48307V3.72195H78.9585C78.8868 3.72195 78.8234 3.72856 78.7704 3.74385C78.7177 3.75905 78.6685 3.78485 78.6351 3.82825L78.6303 3.83454L78.6267 3.84163C78.5744 3.94507 78.5523 4.06114 78.563 4.1765V4.64522C78.5522 4.76075 78.5743 4.87703 78.6267 4.98063L78.6303 4.98771L78.6351 4.99399C78.6686 5.03753 78.718 5.06317 78.7706 5.07821C78.8236 5.09334 78.887 5.09981 78.9585 5.09981H80.0656V10.9684C80.0071 11.6564 80.2176 12.3404 80.6531 12.8765Z" fill="black" stroke="black" stroke-width="0.168593"></path><path d="M100.923 13.19H100.923L100.923 13.1834C100.918 13.1195 100.903 13.0567 100.881 12.9968L96.7572 0.738256C96.7571 0.73806 96.7571 0.737863 96.757 0.737667C96.7184 0.617456 96.6574 0.505624 96.5773 0.408048L96.5781 0.407375L96.5681 0.398473C96.5173 0.353415 96.4577 0.319367 96.393 0.298489C96.3298 0.278069 96.2631 0.270678 96.197 0.276753H95.032C94.8996 0.264597 94.7676 0.304014 94.6634 0.386885L94.6571 0.391893L94.6519 0.398C94.5671 0.497005 94.5052 0.613503 94.4705 0.739178L90.2744 12.9968C90.2518 13.0569 90.2381 13.1199 90.2334 13.1839L90.2332 13.1839L90.2332 13.1902C90.2334 13.2841 90.2661 13.3668 90.3404 13.4227C90.4103 13.4752 90.505 13.4946 90.6108 13.4946H91.369C91.4281 13.51 91.4897 13.513 91.55 13.5034C91.6145 13.4932 91.6759 13.4689 91.7299 13.4322C91.7839 13.3955 91.8291 13.3474 91.8624 13.2912C91.894 13.2378 91.914 13.1784 91.9212 13.1169L92.9625 9.92094H98.12L99.1793 13.1172C99.1865 13.1786 99.2065 13.2379 99.2381 13.2912C99.2714 13.3474 99.3166 13.3955 99.3706 13.4322C99.4246 13.4689 99.486 13.4932 99.5505 13.5034C99.6108 13.513 99.6724 13.51 99.7315 13.4946H100.545H100.545C100.651 13.4945 100.746 13.4749 100.816 13.4225C100.89 13.3666 100.923 13.284 100.923 13.19ZM93.4408 8.46916L95.5597 2.07886L97.643 8.46916H93.4408Z" fill="black" stroke="black" stroke-width="0.168593"></path><path d="M107.177 12.1187H106.282V1.6512H107.177C107.239 1.65832 107.301 1.65344 107.36 1.63679C107.421 1.61963 107.479 1.59033 107.528 1.55065L107.539 1.54229L107.546 1.53111C107.615 1.42699 107.646 1.30257 107.634 1.17858V0.749789C107.645 0.625705 107.615 0.501232 107.546 0.39693L107.539 0.385618L107.528 0.377194C107.479 0.337617 107.421 0.308393 107.36 0.291252C107.301 0.274612 107.239 0.269689 107.177 0.276724H103.748C103.687 0.269699 103.625 0.274638 103.566 0.291284C103.505 0.308435 103.447 0.337663 103.398 0.377238L103.387 0.385717L103.38 0.397112C103.312 0.501457 103.281 0.625728 103.293 0.749685V1.1787C103.281 1.30255 103.312 1.42673 103.38 1.5309L103.387 1.54218L103.398 1.5506C103.447 1.59029 103.504 1.6196 103.566 1.63676C103.625 1.65342 103.687 1.65831 103.748 1.6512H104.645V12.1187H103.748C103.687 12.1116 103.625 12.1166 103.566 12.1332C103.504 12.1504 103.447 12.1796 103.398 12.2192L103.387 12.2277L103.38 12.2391C103.312 12.3434 103.281 12.4677 103.293 12.5916V13.0211C103.281 13.145 103.312 13.2692 103.38 13.3734L103.387 13.3845L103.397 13.3929C103.447 13.4328 103.504 13.4622 103.566 13.4794C103.625 13.4961 103.687 13.5009 103.748 13.4936H107.177C107.239 13.5009 107.301 13.496 107.36 13.4793C107.422 13.4622 107.479 13.4328 107.528 13.393L107.539 13.3847L107.546 13.3736C107.615 13.2695 107.646 13.145 107.634 13.021V12.5917C107.645 12.4677 107.615 12.3432 107.546 12.2389L107.539 12.2276L107.528 12.2192C107.479 12.1796 107.421 12.1503 107.36 12.1332C107.301 12.1166 107.239 12.1116 107.177 12.1187Z" fill="black" stroke="black" stroke-width="0.168593"></path><mask id="path-10-outside-2_1101:2070" maskUnits="userSpaceOnUse" x="65.6058" y="2.54102" width="11" height="12" fill="black"><rect fill="white" x="65.6058" y="2.54102" width="11" height="12"></rect><path d="M74.7504 4.37286C74.4362 4.0828 74.066 3.86006 73.6626 3.71832C73.2591 3.57658 72.8309 3.51884 72.4044 3.54864C71.8394 3.5386 71.279 3.65118 70.7617 3.87862C70.295 4.08559 69.8882 4.40717 69.5791 4.81347V4.17188C69.5859 4.11999 69.5822 4.06723 69.5681 4.01682C69.554 3.96641 69.5297 3.91939 69.4969 3.87862C69.4837 3.86737 69.4691 3.85795 69.4534 3.8506C69.375 3.81098 69.2874 3.79313 69.1998 3.79891H66.9745C66.9226 3.7923 66.8699 3.79617 66.8196 3.81027C66.7692 3.82438 66.7222 3.84844 66.6813 3.88104C66.6231 3.97054 66.5973 4.07728 66.6083 4.18347V4.6207C66.5972 4.72675 66.623 4.83338 66.6813 4.92266C66.722 4.95558 66.769 4.97988 66.8194 4.99408C66.8698 5.00829 66.9226 5.01209 66.9745 5.00527H68.1727V13.0421C68.1658 13.094 68.1695 13.1468 68.1836 13.1972C68.1977 13.2476 68.2219 13.2946 68.2548 13.3354C68.3441 13.3941 68.451 13.42 68.5572 13.4088H69.2336C69.3397 13.4201 69.4465 13.3942 69.5356 13.3354C69.5686 13.2947 69.593 13.2477 69.6072 13.1973C69.6215 13.1469 69.6254 13.0941 69.6187 13.0421V7.41609C69.5847 6.72932 69.8177 6.05605 70.2689 5.5372C70.4928 5.30066 70.7651 5.11516 71.0672 4.99335C71.3692 4.87155 71.694 4.81629 72.0193 4.83135C72.3081 4.80473 72.5994 4.83915 72.874 4.93237C73.1487 5.02559 73.4007 5.17553 73.6137 5.37245C73.985 5.86256 74.1615 6.47296 74.1088 7.08562V13.0421C74.1022 13.094 74.106 13.1467 74.1201 13.1971C74.1342 13.2475 74.1583 13.2945 74.191 13.3354C74.2804 13.3941 74.3875 13.4201 74.4939 13.4088H75.1703C75.2764 13.42 75.3831 13.394 75.4722 13.3354C75.5051 13.2946 75.5294 13.2476 75.5437 13.1972C75.5579 13.1468 75.5619 13.0941 75.5553 13.0421V6.77449C75.5856 6.34084 75.5299 5.90549 75.3915 5.49343C75.253 5.08137 75.0345 4.70072 74.7485 4.37334"></path></mask><path d="M74.7504 4.37286C74.4362 4.0828 74.066 3.86006 73.6626 3.71832C73.2591 3.57658 72.8309 3.51884 72.4044 3.54864C71.8394 3.5386 71.279 3.65118 70.7617 3.87862C70.295 4.08559 69.8882 4.40717 69.5791 4.81347V4.17188C69.5859 4.11999 69.5822 4.06723 69.5681 4.01682C69.554 3.96641 69.5297 3.91939 69.4969 3.87862C69.4837 3.86737 69.4691 3.85795 69.4534 3.8506C69.375 3.81098 69.2874 3.79313 69.1998 3.79891H66.9745C66.9226 3.7923 66.8699 3.79617 66.8196 3.81027C66.7692 3.82438 66.7222 3.84844 66.6813 3.88104C66.6231 3.97054 66.5973 4.07728 66.6083 4.18347V4.6207C66.5972 4.72675 66.623 4.83338 66.6813 4.92266C66.722 4.95558 66.769 4.97988 66.8194 4.99408C66.8698 5.00829 66.9226 5.01209 66.9745 5.00527H68.1727V13.0421C68.1658 13.094 68.1695 13.1468 68.1836 13.1972C68.1977 13.2476 68.2219 13.2946 68.2548 13.3354C68.3441 13.3941 68.451 13.42 68.5572 13.4088H69.2336C69.3397 13.4201 69.4465 13.3942 69.5356 13.3354C69.5686 13.2947 69.593 13.2477 69.6072 13.1973C69.6215 13.1469 69.6254 13.0941 69.6187 13.0421V7.41609C69.5847 6.72932 69.8177 6.05605 70.2689 5.5372C70.4928 5.30066 70.7651 5.11516 71.0672 4.99335C71.3692 4.87155 71.694 4.81629 72.0193 4.83135C72.3081 4.80473 72.5994 4.83915 72.874 4.93237C73.1487 5.02559 73.4007 5.17553 73.6137 5.37245C73.985 5.86256 74.1615 6.47296 74.1088 7.08562V13.0421C74.1022 13.094 74.106 13.1467 74.1201 13.1971C74.1342 13.2475 74.1583 13.2945 74.191 13.3354C74.2804 13.3941 74.3875 13.4201 74.4939 13.4088H75.1703C75.2764 13.42 75.3831 13.394 75.4722 13.3354C75.5051 13.2946 75.5294 13.2476 75.5437 13.1972C75.5579 13.1468 75.5619 13.0941 75.5553 13.0421V6.77449C75.5856 6.34084 75.5299 5.90549 75.3915 5.49343C75.253 5.08137 75.0345 4.70072 74.7485 4.37334" fill="black"></path><path d="M72.4044 3.54864L72.4014 3.71721L72.4088 3.71734L72.4161 3.71683L72.4044 3.54864ZM70.7617 3.87862L70.6939 3.72429L70.6934 3.7245L70.7617 3.87862ZM69.5791 4.81347H69.4105V5.31347L69.7132 4.91556L69.5791 4.81347ZM69.5791 4.17188L69.4119 4.14971L69.4105 4.16075V4.17188H69.5791ZM69.4969 3.87862L69.6282 3.77287L69.6183 3.76062L69.6064 3.7504L69.4969 3.87862ZM69.4534 3.8506L69.3774 4.00114L69.3819 4.00326L69.4534 3.8506ZM69.1998 3.79891V3.96786L69.2109 3.96713L69.1998 3.79891ZM66.9745 3.79891L66.9532 3.96615L66.9638 3.9675H66.9745V3.79891ZM66.6813 3.88104L66.5762 3.74918L66.5548 3.76621L66.5399 3.78914L66.6813 3.88104ZM66.6083 4.18347H66.7769V4.17477L66.776 4.16612L66.6083 4.18347ZM66.6083 4.6207L66.776 4.63828L66.7769 4.62951V4.6207H66.6083ZM66.6813 4.92266L66.5401 5.01484L66.5546 5.03708L66.5753 5.05378L66.6813 4.92266ZM66.9745 5.00527V4.83668H66.9635L66.9526 4.83812L66.9745 5.00527ZM68.1727 5.00527H68.3413V4.83668H68.1727V5.00527ZM68.1727 13.0421L68.3398 13.0643L68.3413 13.0532V13.0421H68.1727ZM68.2548 13.3354L68.1235 13.4411L68.1401 13.4617L68.1622 13.4763L68.2548 13.3354ZM68.5572 13.4088V13.2402H68.5484L68.5396 13.2411L68.5572 13.4088ZM69.2336 13.4088L69.2515 13.2412L69.2426 13.2402H69.2336V13.4088ZM69.5356 13.3354L69.6284 13.4761L69.6501 13.4618L69.6665 13.4416L69.5356 13.3354ZM69.6187 13.0421H69.4501V13.053L69.4515 13.0638L69.6187 13.0421ZM69.6187 7.41609H69.7875L69.787 7.40777L69.6187 7.41609ZM70.2689 5.5372L70.1464 5.4212L70.1417 5.42657L70.2689 5.5372ZM72.0193 4.83135L72.0115 4.99976L72.0232 5.0003L72.0348 4.99923L72.0193 4.83135ZM73.6137 5.37245L73.748 5.27063L73.739 5.25877L73.7281 5.24866L73.6137 5.37245ZM74.1088 7.08562L73.9409 7.0712L73.9403 7.0784V7.08562H74.1088ZM74.1088 13.0421L74.2761 13.0637L74.2774 13.0529V13.0421H74.1088ZM74.191 13.3354L74.0593 13.4406L74.076 13.4616L74.0984 13.4763L74.191 13.3354ZM74.4939 13.4088V13.2402H74.485L74.4761 13.2412L74.4939 13.4088ZM75.1703 13.4088L75.1879 13.2411L75.1791 13.2402H75.1703V13.4088ZM75.4722 13.3354L75.5649 13.4762L75.587 13.4617L75.6035 13.4412L75.4722 13.3354ZM75.5553 13.0421H75.3868V13.0527L75.3881 13.0633L75.5553 13.0421ZM75.5553 6.77449L75.3868 6.76272V6.77449H75.5553ZM74.8648 4.24898C74.5337 3.94333 74.1436 3.70862 73.7185 3.55926L73.6067 3.87738C73.9885 4.01151 74.3388 4.22227 74.6361 4.49674L74.8648 4.24898ZM73.7185 3.55926C73.2933 3.4099 72.8421 3.34905 72.3926 3.38046L72.4161 3.71683C72.8198 3.68862 73.2249 3.74326 73.6067 3.87738L73.7185 3.55926ZM72.4074 3.38008C71.818 3.36961 71.2335 3.48704 70.6939 3.72429L70.8296 4.03295C71.3246 3.81532 71.8608 3.7076 72.4014 3.71721L72.4074 3.38008ZM70.6934 3.7245C70.2007 3.94299 69.7712 4.28246 69.4449 4.71138L69.7132 4.91556C70.0052 4.53187 70.3894 4.22819 70.8301 4.03274L70.6934 3.7245ZM69.7476 4.81347V4.17188H69.4105V4.81347H69.7476ZM69.7462 4.19405C69.7561 4.11951 69.7507 4.04374 69.7304 3.97135L69.4057 4.06229C69.4137 4.09072 69.4158 4.12046 69.4119 4.14971L69.7462 4.19405ZM69.7304 3.97135C69.7101 3.89893 69.6753 3.8314 69.6282 3.77287L69.3656 3.98437C69.3841 4.00738 69.3978 4.03389 69.4057 4.06229L69.7304 3.97135ZM69.6064 3.7504C69.5817 3.72938 69.5544 3.71172 69.525 3.69794L69.3819 4.00326C69.3838 4.00417 69.3857 4.00536 69.3874 4.00683L69.6064 3.7504ZM69.5295 3.70013C69.4241 3.6469 69.3064 3.62292 69.1887 3.63068L69.2109 3.96713C69.2684 3.96334 69.3259 3.97506 69.3774 4.00107L69.5295 3.70013ZM69.1998 3.63031H66.9745V3.9675H69.1998V3.63031ZM66.9958 3.63166C66.9216 3.62221 66.8462 3.62774 66.7741 3.64793L66.865 3.97262C66.8937 3.96459 66.9237 3.96239 66.9532 3.96615L66.9958 3.63166ZM66.7741 3.64793C66.702 3.66812 66.6347 3.70255 66.5762 3.74918L66.7863 4.0129C66.8096 3.99434 66.8364 3.98064 66.865 3.97262L66.7741 3.64793ZM66.5399 3.78914C66.4607 3.91097 66.4256 4.05627 66.4406 4.20083L66.776 4.16612C66.769 4.09829 66.7854 4.03011 66.8226 3.97294L66.5399 3.78914ZM66.4397 4.18347V4.6207H66.7769V4.18347H66.4397ZM66.4406 4.60313C66.4255 4.74772 66.4606 4.89312 66.5401 5.01484L66.8224 4.83047C66.7853 4.77365 66.7689 4.70577 66.776 4.63828L66.4406 4.60313ZM66.5753 5.05378C66.6338 5.10104 66.7012 5.13595 66.7737 5.15636L66.8651 4.83181C66.8367 4.82381 66.8102 4.81012 66.7872 4.79153L66.5753 5.05378ZM66.7737 5.15636C66.8461 5.17676 66.9219 5.18222 66.9965 5.17243L66.9526 4.83812C66.9233 4.84196 66.8935 4.83981 66.8651 4.83181L66.7737 5.15636ZM66.9745 5.17387H68.1727V4.83668H66.9745V5.17387ZM68.0041 5.00527V13.0421H68.3413V5.00527H68.0041ZM68.0055 13.0199C67.9956 13.0945 68.001 13.1702 68.0213 13.2426L68.346 13.1517C68.338 13.1233 68.3359 13.0935 68.3398 13.0643L68.0055 13.0199ZM68.0213 13.2426C68.0416 13.315 68.0763 13.3825 68.1235 13.4411L68.3861 13.2296C68.3676 13.2067 68.3539 13.1802 68.346 13.1517L68.0213 13.2426ZM68.1622 13.4763C68.284 13.5564 68.4299 13.5918 68.5749 13.5765L68.5396 13.2411C68.472 13.2483 68.4041 13.2318 68.3474 13.1945L68.1622 13.4763ZM68.5572 13.5774H69.2336V13.2402H68.5572V13.5774ZM69.2157 13.5764C69.3608 13.5919 69.5067 13.5565 69.6284 13.4761L69.4427 13.1947C69.3863 13.2319 69.3187 13.2483 69.2515 13.2412L69.2157 13.5764ZM69.6665 13.4416C69.7139 13.3831 69.7489 13.3157 69.7694 13.2432L69.445 13.1513C69.437 13.1797 69.4232 13.2062 69.4046 13.2292L69.6665 13.4416ZM69.7694 13.2432C69.79 13.1708 69.7955 13.095 69.7858 13.0204L69.4515 13.0638C69.4553 13.0931 69.4531 13.1229 69.445 13.1513L69.7694 13.2432ZM69.7872 13.0421V7.41609H69.4501V13.0421H69.7872ZM69.787 7.40777C69.7553 6.76448 69.9735 6.13383 70.3962 5.64783L70.1417 5.42657C69.662 5.97827 69.4142 6.69417 69.4503 7.42441L69.787 7.40777ZM70.3914 5.65309C70.5986 5.43415 70.8506 5.26246 71.1302 5.14971L71.0041 4.837C70.6796 4.96787 70.3871 5.16716 70.1465 5.4213L70.3914 5.65309ZM71.1302 5.14971C71.4098 5.03697 71.7104 4.98582 72.0115 4.99976L72.0271 4.66294C71.6776 4.64676 71.3286 4.70612 71.0041 4.837L71.1302 5.14971ZM72.0348 4.99923C72.3001 4.97478 72.5676 5.0064 72.8198 5.09202L72.9282 4.77272C72.6311 4.67191 72.3162 4.63468 72.0038 4.66347L72.0348 4.99923ZM72.8198 5.09202C73.0721 5.17765 73.3036 5.31536 73.4992 5.49623L73.7281 5.24866C73.4978 5.03569 73.2252 4.87354 72.9282 4.77272L72.8198 5.09202ZM73.4793 5.47427C73.8255 5.93112 73.9899 6.50011 73.9409 7.0712L74.2768 7.10005C74.333 6.44582 74.1446 5.794 73.748 5.27063L73.4793 5.47427ZM73.9403 7.08562V13.0421H74.2774V7.08562H73.9403ZM73.9416 13.0206C73.9321 13.0949 73.9376 13.1704 73.9578 13.2426L74.2825 13.1516C74.2744 13.123 74.2723 13.0931 74.2761 13.0637L73.9416 13.0206ZM73.9578 13.2426C73.978 13.3147 74.0125 13.3821 74.0593 13.4406L74.3227 13.2301C74.3042 13.207 74.2905 13.1803 74.2825 13.1516L73.9578 13.2426ZM74.0984 13.4763C74.2204 13.5565 74.3665 13.5918 74.5117 13.5765L74.4761 13.2412C74.4085 13.2483 74.3404 13.2318 74.2835 13.1945L74.0984 13.4763ZM74.4939 13.5774H75.1703V13.2402H74.4939V13.5774ZM75.1526 13.5765C75.2975 13.5917 75.4432 13.5563 75.5649 13.4762L75.3796 13.1945C75.323 13.2318 75.2553 13.2482 75.1879 13.2411L75.1526 13.5765ZM75.6035 13.4412C75.6506 13.3827 75.6854 13.3153 75.7059 13.2432L75.3815 13.1512C75.3734 13.1799 75.3596 13.2065 75.341 13.2296L75.6035 13.4412ZM75.7059 13.2432C75.7263 13.171 75.732 13.0954 75.7226 13.0209L75.3881 13.0633C75.3918 13.0927 75.3896 13.1226 75.3815 13.1512L75.7059 13.2432ZM75.7239 13.0421V6.77449H75.3868V13.0421H75.7239ZM75.7235 6.78623C75.7554 6.33044 75.6968 5.87284 75.5513 5.43973L75.2317 5.54713C75.3631 5.93814 75.4159 6.35125 75.3872 6.76275L75.7235 6.78623ZM75.5513 5.43973C75.4058 5.00662 75.1761 4.60652 74.8755 4.26242L74.6216 4.48426C74.8929 4.79491 75.1003 5.15612 75.2317 5.54713L75.5513 5.43973Z" fill="black" mask="url(#path-10-outside-2_1101:2070)"></path><path d="M53.111 13.4062L53.1219 13.399L53.1301 13.3889C53.1703 13.3393 53.2 13.2821 53.2174 13.2206C53.2343 13.1611 53.2392 13.0988 53.232 13.0373V0.731734C53.2391 0.670374 53.2342 0.608171 53.2173 0.548671C53.1999 0.487352 53.1702 0.430226 53.1301 0.38074L53.1219 0.370608L53.111 0.363433C53.0069 0.294849 52.8825 0.263894 52.7585 0.27561H52.0905C51.9663 0.263729 51.8417 0.294699 51.7374 0.363458L51.7265 0.370667L51.7183 0.380852C51.6782 0.430413 51.6487 0.487565 51.6314 0.548846C51.6146 0.608304 51.6097 0.670465 51.6169 0.731788V13.0374C51.6098 13.0987 51.6147 13.1609 51.6315 13.2204C51.6487 13.2817 51.6782 13.3389 51.7181 13.3886L51.7264 13.3989L51.7374 13.4061C51.8417 13.4749 51.9664 13.5057 52.0906 13.4935H52.7584C52.8824 13.5055 53.0068 13.4747 53.111 13.4062Z" fill="black" stroke="black" stroke-width="0.168593"></path><mask id="path-13-outside-3_1101:2070" maskUnits="userSpaceOnUse" x="9.90881" y="2.80029" width="8" height="11" fill="black"><rect fill="white" x="9.90881" y="2.80029" width="8" height="11"></rect><path d="M17.0039 3.87927C16.9672 3.83096 16.8817 3.80584 16.7474 3.80584H16.5087C15.9431 3.79895 15.3892 3.96775 14.9236 4.28896C14.4591 4.60578 14.0937 5.04743 13.8694 5.56298V4.71267C13.8694 4.68561 13.8733 4.65711 13.8733 4.62522V4.18799C13.8844 4.08173 13.8584 3.9749 13.7998 3.88556C13.7589 3.85296 13.7119 3.8289 13.6615 3.81479C13.6112 3.80069 13.5585 3.79682 13.5066 3.80342H11.2779C11.2261 3.79683 11.1735 3.8007 11.1232 3.81481C11.0729 3.82891 11.026 3.85298 10.9851 3.88556C10.9265 3.9749 10.9004 4.08168 10.9112 4.18799V4.62522C10.9004 4.73138 10.9265 4.83804 10.9851 4.92718C11.0259 4.9598 11.0729 4.9839 11.1232 4.99801C11.1735 5.01212 11.2261 5.01595 11.2779 5.00931H12.4592V13.0399C12.4523 13.0918 12.456 13.1445 12.4701 13.1949C12.4842 13.2453 12.5085 13.2924 12.5413 13.3331C12.6306 13.3919 12.7375 13.4179 12.8437 13.4066H13.5201C13.6262 13.4178 13.733 13.3918 13.8221 13.3331C13.8551 13.2924 13.8795 13.2454 13.8938 13.195C13.908 13.1446 13.9119 13.0918 13.9052 13.0399V8.36657C13.9013 7.94223 13.9568 7.51943 14.0699 7.11043C14.1688 6.74917 14.33 6.40796 14.5463 6.10215C14.741 5.82679 14.9947 5.59836 15.2889 5.4335C15.5895 5.27114 15.927 5.18894 16.2686 5.19483H16.7455C16.8798 5.19483 16.9658 5.17068 17.002 5.1214C17.0476 5.03096 17.0666 4.92941 17.0566 4.82862V4.16867C17.0666 4.06771 17.0477 3.96599 17.002 3.8754"></path></mask><path d="M17.0039 3.87927C16.9672 3.83096 16.8817 3.80584 16.7474 3.80584H16.5087C15.9431 3.79895 15.3892 3.96775 14.9236 4.28896C14.4591 4.60578 14.0937 5.04743 13.8694 5.56298V4.71267C13.8694 4.68561 13.8733 4.65711 13.8733 4.62522V4.18799C13.8844 4.08173 13.8584 3.9749 13.7998 3.88556C13.7589 3.85296 13.7119 3.8289 13.6615 3.81479C13.6112 3.80069 13.5585 3.79682 13.5066 3.80342H11.2779C11.2261 3.79683 11.1735 3.8007 11.1232 3.81481C11.0729 3.82891 11.026 3.85298 10.9851 3.88556C10.9265 3.9749 10.9004 4.08168 10.9112 4.18799V4.62522C10.9004 4.73138 10.9265 4.83804 10.9851 4.92718C11.0259 4.9598 11.0729 4.9839 11.1232 4.99801C11.1735 5.01212 11.2261 5.01595 11.2779 5.00931H12.4592V13.0399C12.4523 13.0918 12.456 13.1445 12.4701 13.1949C12.4842 13.2453 12.5085 13.2924 12.5413 13.3331C12.6306 13.3919 12.7375 13.4179 12.8437 13.4066H13.5201C13.6262 13.4178 13.733 13.3918 13.8221 13.3331C13.8551 13.2924 13.8795 13.2454 13.8938 13.195C13.908 13.1446 13.9119 13.0918 13.9052 13.0399V8.36657C13.9013 7.94223 13.9568 7.51943 14.0699 7.11043C14.1688 6.74917 14.33 6.40796 14.5463 6.10215C14.741 5.82679 14.9947 5.59836 15.2889 5.4335C15.5895 5.27114 15.927 5.18894 16.2686 5.19483H16.7455C16.8798 5.19483 16.9658 5.17068 17.002 5.1214C17.0476 5.03096 17.0666 4.92941 17.0566 4.82862V4.16867C17.0666 4.06771 17.0477 3.96599 17.002 3.8754" fill="black"></path><path d="M16.5087 3.80584L16.5067 3.97443H16.5087V3.80584ZM14.9236 4.28896L15.0186 4.42824L15.0193 4.42774L14.9236 4.28896ZM13.8694 5.56298H13.7008L14.024 5.63023L13.8694 5.56298ZM13.8733 4.18799L13.7056 4.1705L13.7047 4.17922V4.18799H13.8733ZM13.7998 3.88556L13.9408 3.79311L13.926 3.77053L13.9049 3.7537L13.7998 3.88556ZM13.5066 3.80342V3.97202H13.5173L13.5279 3.97067L13.5066 3.80342ZM11.2779 3.80342L11.2566 3.97067L11.2672 3.97202H11.2779V3.80342ZM10.9851 3.88556L10.88 3.75378L10.8589 3.77058L10.8442 3.79309L10.9851 3.88556ZM10.9112 4.18799H11.0798V4.17946L11.079 4.17098L10.9112 4.18799ZM10.9112 4.62522L11.0789 4.64239L11.0798 4.63383V4.62522H10.9112ZM10.9851 4.92718L10.8443 5.01988L10.859 5.04217L10.8798 5.05884L10.9851 4.92718ZM11.2779 5.00931V4.84071H11.2671L11.2565 4.84208L11.2779 5.00931ZM12.4592 5.00931H12.6278V4.84071H12.4592V5.00931ZM12.4592 13.0399L12.6263 13.062L12.6278 13.051V13.0399H12.4592ZM12.5413 13.3331L12.41 13.4389L12.4265 13.4594L12.4486 13.4739L12.5413 13.3331ZM12.8437 13.4066V13.238H12.8348L12.8259 13.2389L12.8437 13.4066ZM13.5201 13.4066L13.5378 13.2389L13.529 13.238H13.5201V13.4066ZM13.8221 13.3331L13.9148 13.4739L13.9366 13.4596L13.953 13.4393L13.8221 13.3331ZM13.9052 13.0399H13.7366V13.0508L13.738 13.0616L13.9052 13.0399ZM13.9052 8.36657L14.0738 8.36657L14.0738 8.36505L13.9052 8.36657ZM14.0699 7.11043L14.2324 7.15537L14.2325 7.15494L14.0699 7.11043ZM14.5463 6.10215L14.6839 6.19949L14.6839 6.19948L14.5463 6.10215ZM15.2889 5.4335L15.2087 5.28513L15.2064 5.28642L15.2889 5.4335ZM16.2686 5.19483L16.2657 5.36342H16.2686V5.19483ZM17.002 5.1214L17.1378 5.22127L17.1462 5.2099L17.1526 5.1973L17.002 5.1214ZM17.0566 4.82862H16.888V4.83692L16.8888 4.84517L17.0566 4.82862ZM17.0566 4.16867L16.8888 4.15203L16.888 4.16033V4.16867H17.0566ZM17.1382 3.77726C17.0899 3.71374 17.0214 3.68043 16.959 3.66244C16.8956 3.64418 16.8235 3.63724 16.7474 3.63724V3.97443C16.8056 3.97443 16.8434 3.98005 16.8656 3.98644C16.8887 3.99309 16.8813 3.99649 16.8697 3.98129L17.1382 3.77726ZM16.7474 3.63724H16.5087V3.97443H16.7474V3.63724ZM16.5108 3.63726C15.9103 3.62995 15.3222 3.80916 14.8279 4.15019L15.0193 4.42774C15.4563 4.12635 15.9759 3.96796 16.5067 3.97442L16.5108 3.63726ZM14.8286 4.14969C14.3379 4.48441 13.9518 4.95103 13.7148 5.49572L14.024 5.63023C14.2356 5.14383 14.5804 4.72715 15.0186 4.42824L14.8286 4.14969ZM14.038 5.56298V4.71267H13.7008V5.56298H14.038ZM14.038 4.71267C14.038 4.70592 14.0385 4.69812 14.0396 4.68201C14.0405 4.66774 14.0419 4.64748 14.0419 4.62522H13.7047C13.7047 4.63485 13.7041 4.64478 13.7031 4.6595C13.7023 4.67238 13.7008 4.69236 13.7008 4.71267H14.038ZM14.0419 4.62522V4.18799H13.7047V4.62522H14.0419ZM14.041 4.20548C14.0561 4.06059 14.0207 3.91493 13.9408 3.79311L13.6589 3.978C13.6962 4.03487 13.7127 4.10287 13.7056 4.1705L14.041 4.20548ZM13.9049 3.7537C13.8464 3.70706 13.7791 3.67263 13.707 3.65245L13.6161 3.97714C13.6447 3.98517 13.6715 3.99886 13.6948 4.01742L13.9049 3.7537ZM13.707 3.65245C13.6349 3.63226 13.5596 3.62673 13.4853 3.63618L13.5279 3.97067C13.5574 3.96691 13.5874 3.96911 13.6161 3.97714L13.707 3.65245ZM13.5066 3.63483H11.2779V3.97202H13.5066V3.63483ZM11.2992 3.63618C11.225 3.62674 11.1497 3.63228 11.0777 3.65248L11.1687 3.97713C11.1973 3.96912 11.2272 3.96692 11.2566 3.97067L11.2992 3.63618ZM11.0777 3.65248C11.0057 3.67268 10.9384 3.70714 10.88 3.75378L11.0903 4.01733C11.1135 3.99881 11.1402 3.98515 11.1687 3.97713L11.0777 3.65248ZM10.8442 3.79309C10.7644 3.91477 10.7288 4.06021 10.7435 4.205L11.079 4.17098C11.0721 4.10316 11.0887 4.03503 11.1261 3.97802L10.8442 3.79309ZM10.7426 4.18799V4.62522H11.0798V4.18799H10.7426ZM10.7435 4.60805C10.7287 4.75285 10.7643 4.89831 10.8443 5.01988L11.126 4.83447C11.0886 4.77777 11.072 4.70992 11.0789 4.64239L10.7435 4.60805ZM10.8798 5.05884C10.9383 5.10558 11.0056 5.14011 11.0776 5.16033L11.1687 4.83568C11.1402 4.82768 11.1136 4.81403 11.0905 4.79551L10.8798 5.05884ZM11.0776 5.16033C11.1497 5.18055 11.2251 5.18605 11.2994 5.17653L11.2565 4.84208C11.2271 4.84586 11.1972 4.84368 11.1687 4.83568L11.0776 5.16033ZM11.2779 5.1779H12.4592V4.84071H11.2779V5.1779ZM12.2906 5.00931V13.0399H12.6278V5.00931H12.2906ZM12.292 13.0177C12.2822 13.0922 12.2875 13.168 12.3078 13.2404L12.6325 13.1495C12.6245 13.1211 12.6224 13.0913 12.6263 13.062L12.292 13.0177ZM12.3078 13.2404C12.3281 13.3128 12.3628 13.3803 12.41 13.4389L12.6726 13.2274C12.6541 13.2044 12.6404 13.1779 12.6325 13.1495L12.3078 13.2404ZM12.4486 13.4739C12.5705 13.5542 12.7164 13.5896 12.8615 13.5742L12.8259 13.2389C12.7585 13.2461 12.6907 13.2296 12.634 13.1923L12.4486 13.4739ZM12.8437 13.5752H13.5201V13.238H12.8437V13.5752ZM13.5024 13.5742C13.6473 13.5895 13.7931 13.5541 13.9148 13.4739L13.7293 13.1923C13.6728 13.2296 13.6051 13.246 13.5378 13.2389L13.5024 13.5742ZM13.953 13.4393C14.0004 13.3809 14.0354 13.3134 14.056 13.241L13.7315 13.1491C13.7235 13.1775 13.7097 13.204 13.6911 13.2269L13.953 13.4393ZM14.056 13.241C14.0765 13.1686 14.082 13.0928 14.0724 13.0181L13.738 13.0616C13.7418 13.0909 13.7396 13.1207 13.7315 13.1491L14.056 13.241ZM14.0738 13.0399V8.36657H13.7366V13.0399H14.0738ZM14.0738 8.36505C14.0701 7.9564 14.1235 7.54925 14.2324 7.15537L13.9074 7.06549C13.7901 7.48962 13.7326 7.92805 13.7366 8.36809L14.0738 8.36505ZM14.2325 7.15494C14.3262 6.81261 14.479 6.48928 14.6839 6.19949L14.4086 6.0048C14.181 6.32663 14.0114 6.68573 13.9073 7.06592L14.2325 7.15494ZM14.6839 6.19948C14.8641 5.94461 15.099 5.73317 15.3713 5.58057L15.2064 5.28642C14.8904 5.46355 14.6178 5.70897 14.4086 6.00481L14.6839 6.19948ZM15.369 5.58184C15.6442 5.43324 15.953 5.35801 16.2657 5.3634L16.2715 5.02626C15.9009 5.01987 15.5349 5.10903 15.2087 5.28515L15.369 5.58184ZM16.2686 5.36342H16.7455V5.02624H16.2686V5.36342ZM16.7455 5.36342C16.821 5.36342 16.8932 5.35682 16.9567 5.33873C17.0193 5.32091 17.0893 5.28725 17.1378 5.22127L16.8662 5.02152C16.8785 5.00482 16.8874 5.00788 16.8643 5.01445C16.8422 5.02076 16.8043 5.02624 16.7455 5.02624V5.36342ZM17.1526 5.1973C17.2126 5.07831 17.2375 4.9447 17.2244 4.81207L16.8888 4.84517C16.8956 4.91413 16.8827 4.98361 16.8515 5.04549L17.1526 5.1973ZM17.2252 4.82862V4.16867H16.888V4.82862H17.2252ZM17.2244 4.1853C17.2376 4.05249 17.2126 3.91868 17.1526 3.79951L16.8515 3.9513C16.8827 4.01331 16.8957 4.08293 16.8888 4.15203L17.2244 4.1853Z" fill="black" mask="url(#path-13-outside-3_1101:2070)"></path></svg> 