<?xml version="1.0" encoding="UTF-8"?> <svg xmlns="http://www.w3.org/2000/svg" width="69" height="73" viewBox="0 0 69 73" fill="none"><g clip-path="url(#clip0_926:1997)"><path d="M65.8218 63.1603H69.0058V45.7351H65.8218V63.1603ZM53.1466 48.4974H55.5057C57.39 48.4974 58.4581 49.447 58.4581 51.0547C58.4581 52.4113 57.4595 53.6525 55.4159 53.6525H53.1466V48.4974ZM49.9916 63.1603H53.1466V56.3715H55.4391L58.8662 63.1603H62.2471L58.4349 55.7827C60.4988 54.7868 61.5668 53.0204 61.5668 50.9393C61.5668 47.3168 58.7736 45.7438 55.4159 45.7438H49.9916V63.1603ZM39.3484 51.8687L41.3224 56.6226H37.2701L39.3484 51.8687ZM31.18 63.1603H34.4247L36.0804 59.3329H42.4484L44.0925 63.1603H47.4965L39.577 45.4407H39.4844L31.18 63.1603ZM11.7316 63.3854C15.1355 63.3854 17.9056 61.3938 17.9056 58.0225C17.9056 55.1015 15.4076 53.791 12.9849 52.9309C11.1237 52.2728 9.71696 51.8196 9.71696 50.3735C9.71696 48.9708 10.9877 48.177 12.351 48.177C12.9383 48.165 13.5214 48.278 14.0614 48.5085C14.6015 48.7389 15.0861 49.0815 15.4829 49.5134L17.4106 47.6805C16.0502 46.0728 14.0964 45.484 12.3742 45.484C9.01359 45.484 6.69796 47.77 6.69796 50.7112C6.69796 53.5399 8.81097 54.7522 11.0571 55.5315C14.0964 56.5966 14.7332 57.2634 14.7332 58.5421C14.7332 59.9016 13.1904 60.6924 11.8965 60.6924C11.2003 60.7074 10.5097 60.5644 9.87696 60.2744C9.24418 59.9844 8.68569 59.5549 8.24364 59.0183L6.21746 60.9868C7.80656 62.9554 10.0296 63.3854 11.7316 63.3854ZM0 63.1603H3.18399V45.7351H0V63.1603Z" fill="black"></path><path d="M32.7337 45.7351H19.5723V48.4974H24.5653V63.1603H27.7407V48.4974H32.7337V45.7351Z" fill="black"></path><path d="M3.2334 70.6649C3.2402 70.0746 3.479 69.5104 3.89848 69.0938C4.31795 68.6771 4.88461 68.4411 5.47667 68.4366C6.01937 68.4442 6.54671 68.6175 6.98761 68.9331L6.60264 69.5104C6.27145 69.2808 5.8799 69.1533 5.47667 69.1438C5.08322 69.1609 4.71157 69.3288 4.43922 69.6125C4.16687 69.8961 4.01485 70.2737 4.01485 70.6664C4.01485 71.0591 4.16687 71.4367 4.43922 71.7203C4.71157 72.004 5.08322 72.1719 5.47667 72.189C5.91798 72.1708 6.34276 72.0165 6.69237 71.7473L7.07156 72.3102C6.61943 72.6747 6.058 72.8779 5.47667 72.8875C4.8856 72.883 4.31979 72.6479 3.90048 72.2324C3.48117 71.817 3.24171 71.2543 3.2334 70.6649Z" fill="black"></path><path d="M10.5684 70.6649C10.5701 70.2253 10.7023 69.7962 10.9483 69.4315C11.1943 69.0668 11.5431 68.7829 11.9507 68.6156C12.3583 68.4483 12.8064 68.4051 13.2386 68.4915C13.6708 68.5779 14.0676 68.79 14.3791 69.1009C14.6906 69.4119 14.9027 69.808 14.9888 70.239C15.0748 70.6701 15.031 71.1169 14.8627 71.5232C14.6944 71.9294 14.4093 72.2768 14.0432 72.5217C13.6772 72.7665 13.2466 72.8978 12.8058 72.8989C12.2124 72.8974 11.6437 72.6615 11.2244 72.2427C10.805 71.824 10.5691 71.2567 10.5684 70.6649ZM11.3644 70.6649C11.3785 70.9468 11.4753 71.2184 11.6427 71.4461C11.81 71.6737 12.0407 71.8474 12.3061 71.9457C12.5715 72.0439 12.8599 72.0624 13.1357 71.9988C13.4116 71.9353 13.6626 71.7924 13.8578 71.588C14.0531 71.3836 14.1839 71.1266 14.2341 70.8488C14.2844 70.571 14.2518 70.2846 14.1404 70.025C14.0291 69.7655 13.8438 69.5442 13.6077 69.3886C13.3715 69.233 13.0947 69.1499 12.8116 69.1495C12.4188 69.1623 12.0466 69.3282 11.7749 69.6115C11.5033 69.8948 11.3538 70.2729 11.3586 70.6649H11.3644Z" fill="black"></path><path d="M18.6436 72.8268V68.4972H19.428V72.1312H21.3384V72.8355L18.6436 72.8268Z" fill="black"></path><path d="M24.7217 72.8268V68.4972H25.509V72.1312H27.4194V72.8355L24.7217 72.8268Z" fill="black"></path><path d="M33.2178 71.0113H31.591V72.1225H33.5014V72.8268H30.8037V68.4972H33.4435V69.2015H31.591V70.3185H33.2178V71.0113Z" fill="black"></path><path d="M37.0557 70.665C37.0617 70.0743 37.3003 69.5098 37.7199 69.0929C38.1396 68.6761 38.7066 68.4404 39.2989 68.4366C39.8413 68.4463 40.3677 68.6216 40.807 68.9389L40.422 69.5162C40.0917 69.287 39.7012 69.1595 39.2989 69.1496C38.9055 69.1667 38.5338 69.3346 38.2615 69.6182C37.9891 69.9019 37.8371 70.2794 37.8371 70.6722C37.8371 71.0649 37.9891 71.4424 38.2615 71.7261C38.5338 72.0098 38.9055 72.1777 39.2989 72.1947C39.7394 72.1766 40.1632 72.0222 40.5117 71.7531L40.8909 72.316C40.4396 72.6799 39.8793 72.8831 39.2989 72.8933C38.7066 72.8895 38.1396 72.6538 37.7199 72.237C37.3003 71.8201 37.0617 71.2556 37.0557 70.665Z" fill="black"></path><path d="M47.9224 69.1928H46.4751V72.8268H45.6878V69.1928H44.2637V68.4885H47.9108L47.9224 69.1928Z" fill="black"></path><path d="M52.2063 68.4885V72.8181H51.4189V68.4885H52.2063Z" fill="black"></path><path d="M55.5928 68.4885H56.438L57.7058 71.3287L58.9707 68.4885H59.8391L57.7145 73L55.5928 68.4885Z" fill="black"></path><path d="M65.6279 71.0113H63.9983V72.1225H65.9087V72.8268H63.2139V68.4972H65.8537V69.2015H63.9983V70.3185H65.6279V71.0113Z" fill="black"></path><path d="M30.8872 13.7999V13.7942H30.8814L27.903 1.90796L24.9216 13.7942H24.9158V13.7999L12.9961 16.7729L24.9158 19.7459V19.7517H24.9216L27.903 31.6379L30.8814 19.7517H30.8872L24.9158 13.7942H30.8872V19.7517V19.7459L42.8069 16.7729L30.8872 13.7999Z" fill="black"></path><path d="M56.0035 26.1133L50.0437 24.6268L48.5501 18.6837L47.0565 24.6268L41.0967 26.1133L47.0565 27.6027L48.5501 33.5458L50.0437 27.6027L56.0035 26.1133Z" fill="black"></path><path d="M43.9742 4.18528L40.6166 3.34823L39.7772 0L38.9348 3.34823L35.5801 4.18528L38.9348 5.02234L39.7772 8.37057L40.6166 5.02234L43.9742 4.18528Z" fill="black"></path></g><defs><clipPath id="clip0_926:1997"><rect width="69" height="73" fill="white"></rect></clipPath></defs></svg> 