<?xml version="1.0" standalone="no"?>
<!DOCTYPE svg PUBLIC "-//W3C//DTD SVG 20010904//EN"
 "http://www.w3.org/TR/2001/REC-SVG-20010904/DTD/svg10.dtd">
<svg version="1.0" xmlns="http://www.w3.org/2000/svg"
 width="700.000000pt" height="700.000000pt" viewBox="0 0 700.000000 700.000000"
 preserveAspectRatio="xMidYMid meet">
<metadata>
Created by potrace 1.14, written by Peter Selinger 2001-2017
</metadata>
<g transform="translate(0.000000,700.000000) scale(0.100000,-0.100000)"
fill="#000000" stroke="none">
<path d="M3328 6325 c-2 -2 -39 -6 -83 -10 -44 -3 -107 -10 -140 -15 -33 -5
-78 -12 -100 -15 -22 -4 -48 -8 -57 -11 -10 -3 -30 -7 -45 -10 -16 -3 -71 -16
-123 -30 -1008 -270 -1777 -1051 -2025 -2060 -29 -119 -29 -118 -40 -184 -4
-25 -9 -54 -11 -65 -27 -153 -37 -490 -21 -675 49 -545 258 -1069 599 -1502
305 -387 702 -684 1166 -872 132 -53 337 -118 422 -133 14 -2 41 -8 60 -13 19
-4 69 -14 110 -20 41 -6 85 -13 96 -15 218 -34 604 -25 854 20 952 172 1759
817 2118 1695 68 166 140 396 157 500 3 19 8 42 10 50 6 20 13 64 21 120 3 25
8 54 10 64 18 98 25 454 11 601 -8 77 -22 186 -33 250 -3 17 -7 43 -10 59 -3
16 -7 32 -9 36 -2 4 -7 22 -10 40 -35 199 -181 571 -306 781 -18 30 -37 63
-43 74 -6 11 -39 61 -73 110 -377 548 -910 932 -1561 1124 -115 34 -324 77
-422 86 -36 4 -76 9 -90 12 -27 5 -427 13 -432 8z m427 -219 c22 -3 63 -8 90
-11 448 -53 931 -262 1305 -564 538 -436 890 -1089 956 -1776 16 -167 8 -504
-16 -637 -5 -29 -12 -69 -15 -88 -15 -90 -81 -340 -104 -395 -5 -11 -24 -58
-42 -105 -40 -105 -137 -298 -203 -405 -214 -347 -524 -654 -868 -861 -238
-144 -564 -275 -793 -320 -11 -2 -42 -8 -70 -14 -27 -5 -67 -12 -89 -16 -21
-3 -48 -7 -59 -10 -130 -25 -542 -24 -692 1 -47 8 -87 14 -130 21 -49 7 -218
49 -300 74 -328 100 -705 310 -949 529 -74 66 -231 226 -271 276 -22 28 -45
56 -52 63 -28 29 -135 184 -188 272 -204 334 -333 720 -372 1110 -9 94 -9 377
0 490 20 254 102 564 215 820 41 93 68 145 152 295 41 74 175 258 250 344 241
278 504 483 825 642 246 122 484 200 725 239 41 7 84 14 95 16 11 2 58 7 105
10 47 4 86 8 88 9 5 4 367 -3 407 -9z"/>
<path d="M3922 4828 c-16 -4 -34 -18 -40 -30 -9 -18 -329 -981 -398 -1198 -8
-25 -17 -52 -21 -60 -3 -8 -7 -19 -8 -25 -3 -9 -174 -528 -352 -1064 -74 -222
-81 -262 -48 -274 8 -4 66 -7 130 -8 87 -1 121 2 138 14 17 11 40 69 100 253
43 132 180 547 304 924 125 377 228 690 229 695 1 6 54 168 118 361 64 193
116 360 116 372 0 11 -6 24 -12 29 -18 11 -222 20 -256 11z"/>
<path d="M2129 4807 c-8 -18 -4 -42 20 -119 17 -53 38 -101 46 -108 10 -8 55
-14 118 -16 99 -3 212 -20 232 -34 6 -4 21 -10 35 -13 38 -9 107 -64 140 -111
59 -86 84 -203 83 -391 0 -168 -21 -269 -74 -355 -69 -112 -192 -165 -394
-169 -137 -3 -143 -7 -181 -116 -38 -106 -39 -118 -18 -140 15 -14 40 -16 188
-14 196 3 278 13 374 45 71 25 116 49 179 101 185 151 254 339 248 683 -2 91
-6 181 -9 200 -36 212 -132 370 -286 469 -128 83 -247 109 -512 111 -177 1
-178 1 -189 -23z"/>
<path d="M4424 3772 c-33 -22 -34 -48 -34 -806 0 -743 0 -756 20 -776 21 -21
40 -23 180 -21 127 2 115 -85 115 807 l0 766 -24 19 c-20 16 -40 19 -135 19
-61 0 -116 -4 -122 -8z"/>
</g>
</svg>
