<?xml version="1.0" encoding="UTF-8"?> <svg xmlns="http://www.w3.org/2000/svg" width="130" height="22" viewBox="0 0 130 22" fill="none"><path d="M99.1972 4.2962V8.71347C99.4946 8.28215 99.9185 7.94751 100.469 7.70954C100.766 7.59056 101.108 7.53107 101.495 7.53107C102.834 7.53107 103.823 8.00328 104.462 8.94772C105.013 9.75829 105.288 10.9035 105.288 12.3834V16.7337C105.288 18.2359 104.812 19.4666 103.86 20.4259C102.953 21.3555 101.807 21.8203 100.424 21.8203C99.0856 21.8203 97.9702 21.3332 97.0778 20.359C96.23 19.4294 95.8062 18.2954 95.8062 16.9568V16.466L98.7398 16.2429L98.8068 16.9456C98.8811 17.7562 99.2083 18.2954 99.7884 18.5631C99.9669 18.6523 100.153 18.6969 100.346 18.6969C101.603 18.6969 102.231 18.0425 102.231 16.7337V11.781C102.231 11.1861 102.012 10.6953 101.573 10.3086C101.372 10.1227 101.086 10.0297 100.714 10.0297C100.179 10.0297 99.781 10.2417 99.5207 10.6655C99.305 11.0299 99.1972 11.4166 99.1972 11.8256V12.3834H96.1073V1.2175H105.087V4.2962H99.1972Z" fill="white"></path><path d="M117.134 16.968C117.134 18.3214 116.658 19.4703 115.707 20.4148C114.755 21.3518 113.613 21.8203 112.282 21.8203C110.929 21.8203 109.78 21.348 108.835 20.4036C107.891 19.4517 107.419 18.3065 107.419 16.968V5.82439C107.419 4.47096 107.895 3.32202 108.846 2.37759C109.798 1.43315 110.944 0.960938 112.282 0.960938C113.636 0.960938 114.781 1.43687 115.718 2.38874C116.662 3.34061 117.134 4.48583 117.134 5.82439V16.968ZM113.955 5.75747C113.955 5.2741 113.781 4.86137 113.431 4.51929C113.089 4.16978 112.673 3.99502 112.182 3.99502C111.698 3.99502 111.286 4.16978 110.944 4.51929C110.601 4.86137 110.43 5.2741 110.43 5.75747V16.9233C110.43 17.4067 110.601 17.8232 110.944 18.1727C111.286 18.5147 111.698 18.6858 112.182 18.6858C112.673 18.6858 113.089 18.5147 113.431 18.1727C113.781 17.8232 113.955 17.4067 113.955 16.9233V5.75747Z" fill="white"></path><path d="M129.037 16.968C129.037 18.3214 128.561 19.4703 127.609 20.4148C126.657 21.3518 125.516 21.8203 124.185 21.8203C122.831 21.8203 121.682 21.348 120.738 20.4036C119.793 19.4517 119.321 18.3065 119.321 16.968V5.82439C119.321 4.47096 119.797 3.32202 120.749 2.37759C121.701 1.43315 122.846 0.960938 124.185 0.960938C125.538 0.960938 126.683 1.43687 127.62 2.38874C128.565 3.34061 129.037 4.48583 129.037 5.82439V16.968ZM125.858 5.75747C125.858 5.2741 125.683 4.86137 125.334 4.51929C124.992 4.16978 124.575 3.99502 124.084 3.99502C123.601 3.99502 123.188 4.16978 122.846 4.51929C122.504 4.86137 122.333 5.2741 122.333 5.75747V16.9233C122.333 17.4067 122.504 17.8232 122.846 18.1727C123.188 18.5147 123.601 18.6858 124.084 18.6858C124.575 18.6858 124.992 18.5147 125.334 18.1727C125.683 17.8232 125.858 17.4067 125.858 16.9233V5.75747Z" fill="white"></path><g clip-path="url(#clip0_2161_2364)"><path d="M11.5 5.69995V16.9C11.5 18.1597 12.0004 19.3679 12.8912 20.2587C13.782 21.1495 14.9902 21.65 16.25 21.65C17.5098 21.65 18.718 21.1495 19.6088 20.2587C20.4996 19.3679 21 18.1597 21 16.9V5.69995C21 4.44017 20.4996 3.23199 19.6088 2.34119C18.718 1.4504 17.5098 0.949951 16.25 0.949951C14.9902 0.949951 13.782 1.4504 12.8912 2.34119C12.0004 3.23199 11.5 4.44017 11.5 5.69995V5.69995ZM14.9 16.9V5.69995C14.8979 5.52004 14.9336 5.34169 15.0045 5.17636C15.0755 5.01103 15.1803 4.86237 15.3121 4.73994C15.444 4.61751 15.6 4.52402 15.7701 4.46547C15.9402 4.40691 16.1207 4.3846 16.3 4.39995C16.4722 4.39439 16.6438 4.42421 16.804 4.48758C16.9642 4.55094 17.1098 4.6465 17.2316 4.76834C17.3535 4.89018 17.449 5.03572 17.5124 5.19596C17.5757 5.3562 17.6056 5.52773 17.6 5.69995V16.9C17.5948 17.2431 17.4562 17.5708 17.2135 17.8135C16.9708 18.0562 16.6432 18.1948 16.3 18.2C16.1227 18.2066 15.9458 18.1783 15.7794 18.1166C15.6131 18.0548 15.4605 17.9609 15.3305 17.8402C15.2005 17.7194 15.0955 17.5743 15.0217 17.4129C14.9478 17.2516 14.9064 17.0773 14.9 16.9V16.9ZM48.4 1.19995H38.8V4.59995H41.9V21.2999H45.3V4.59995H48.4V1.19995ZM58.4 1.19995V16.9C58.4 17.2447 58.263 17.5754 58.0192 17.8192C57.7754 18.063 57.4448 18.2 57.1 18.2C56.7552 18.2 56.4246 18.063 56.1808 17.8192C55.937 17.5754 55.8 17.2447 55.8 16.9V1.19995H52.3V16.9C52.3 18.173 52.8057 19.3939 53.7059 20.2941C54.6061 21.1942 55.827 21.7 57.1 21.7C58.373 21.7 59.5939 21.1942 60.4941 20.2941C61.3943 19.3939 61.9 18.173 61.9 16.9V1.19995H58.4ZM89.5 4.59995V1.19995H81.1V21.2999H89.5V17.9H84.5V12.7H87.7V9.29995H84.5V4.59995H89.5ZM35.6 21.2999H32L29.5 11.8C30.1237 11.6765 30.6848 11.3393 31.0865 10.8463C31.4881 10.3534 31.7051 9.73577 31.7 9.09995V5.99995C31.7041 5.81498 31.6707 5.63109 31.6018 5.45938C31.5329 5.28768 31.4299 5.13171 31.2991 5.00088C31.1682 4.87005 31.0123 4.76708 30.8406 4.69817C30.6689 4.62927 30.485 4.59585 30.3 4.59995H29V21.2999H25.6V1.19995H30.3C31.5421 1.18881 32.7393 1.66365 33.6362 2.5231C34.533 3.38254 35.0583 4.55851 35.1 5.79995V8.99995C35.1457 9.8304 34.9978 10.6601 34.6681 11.4237C34.3384 12.1872 33.8358 12.8638 33.2 13.4L35.6 21.2999ZM73.5 1.19995V12.2L70 1.19995H66.5V21.2999H70V11.5L73.2 21.2999H77V1.19995H73.5ZM0 1.49995V21.6H3.6V13H6.9V9.59995H3.6V4.89995H8.8V1.49995H0Z" fill="white"></path></g><defs><clipPath id="clip0_2161_2364"><rect width="89.5" height="20.6" fill="white" transform="translate(0 1)"></rect></clipPath></defs></svg> 